<svg width="1920" height="1080" viewBox="0 0 1920 1080" fill="none" xmlns="http://www.w3.org/2000/svg">
<g clip-path="url(#clip0_37_1253)">
<rect width="1920" height="1080" transform="matrix(-1 0 0 1 1920 0)" fill="white"/>
<g opacity="0.5" filter="url(#filter0_f_37_1253)">
<path fill-rule="evenodd" clip-rule="evenodd" d="M2347.14 1052.04H-114.153V1116.76H2347.14V1052.04Z" fill="#DFE3EC"/>
</g>
<g opacity="0.7">
<path opacity="0.8" d="M123.526 1766.98C126.114 1766.37 128.022 1764.77 129.171 1762.86L209.582 1785.73C209.065 1786.89 208.819 1788.11 209.072 1789.4C209.933 1793.01 214.295 1795.14 218.825 1794.04C223.261 1792.98 226.246 1789.13 225.342 1785.44C225.311 1785.18 225.092 1785 224.966 1784.77L584.915 1618.14C586.719 1620.31 590.038 1621.42 593.415 1620.55C596.833 1619.76 599.239 1617.38 599.877 1614.77L816.962 1619.44C816.983 1619.9 816.818 1620.44 816.975 1620.93C817.837 1624.54 822.199 1626.67 826.635 1625.61C831.165 1624.51 834.056 1620.7 833.194 1617.09C833.089 1616.48 832.703 1616.01 832.411 1615.49L1081.15 1466.12C1082.98 1467.91 1086.04 1468.77 1089.13 1468.03C1092.92 1467.07 1095.44 1464.26 1095.6 1461.22L1417.99 1422.54C1418.04 1422.61 1417.94 1422.66 1417.98 1422.73C1418.85 1426.34 1423.21 1428.48 1427.74 1427.37C1432.17 1426.31 1435.16 1422.46 1434.25 1418.78C1433.91 1417.54 1433.14 1416.58 1432.22 1415.78L1592.75 1261.1C1594.61 1262.12 1596.92 1262.48 1599.32 1261.96C1603.02 1261.05 1605.54 1258.24 1605.87 1255.3L1896.57 1227.5C1896.66 1227.65 1896.51 1227.8 1896.6 1227.95C1897.46 1231.56 1901.82 1233.7 1906.35 1232.59C1910.37 1231.63 1912.95 1228.52 1912.85 1225.21L2274.94 1154.12C2276.09 1157.42 2280.14 1159.41 2284.45 1158.32C2286.52 1157.85 2288.23 1156.72 2289.4 1155.26L2644.62 1294.3C2644.01 1295.51 2643.71 1296.85 2644 1298.21C2644.86 1301.82 2649.23 1303.95 2653.76 1302.85C2658.29 1301.74 2661.18 1297.94 2660.27 1294.25C2660.16 1293.84 2659.9 1293.58 2659.69 1293.21L3024.97 1098.62C3026.84 1100.48 3029.94 1101.41 3033.17 1100.7C3037.7 1099.6 3040.59 1095.79 3039.73 1092.18C3039.46 1091.09 3038.79 1090.09 3037.91 1089.37L3295.27 846.328C3297.09 847.277 3299.4 847.635 3301.8 847.116C3306.24 846.055 3309.22 842.206 3308.32 838.52C3307.87 836.678 3306.58 835.212 3304.84 834.412L3475.6 537.536C3476.95 537.859 3478.4 537.949 3479.84 537.585C3484.27 536.524 3487.26 532.675 3486.35 528.989C3486.25 528.386 3485.86 527.908 3485.57 527.388L3804.45 328.141C3806.33 329.809 3809.21 330.561 3812.21 329.865C3816.74 328.762 3819.63 324.954 3818.73 321.269C3817.87 317.658 3813.51 315.524 3808.98 316.627C3806.81 317.137 3805.01 318.314 3803.79 319.886L3606.95 242.817C3607.61 241.497 3608 240.113 3607.66 238.683C3606.76 234.998 3602.44 232.938 3597.91 234.041C3594.91 234.738 3592.66 236.77 3591.76 239.126L3279.13 208.622C3279.21 207.935 3279.33 207.322 3279.19 206.644C3278.33 203.033 3273.96 200.899 3269.43 202.002C3265 203.063 3262.01 206.913 3262.92 210.598C3263.18 211.689 3263.82 212.612 3264.6 213.377L3035.27 421.992C3033.41 420.969 3031.06 420.536 3028.56 421.098C3024.45 422.107 3021.82 425.334 3022.05 428.667L2655.97 511.401C2654.77 508.222 2650.81 506.376 2646.6 507.427C2643.73 508.156 2641.62 510.031 2640.64 512.238L2276.26 466.744C2276.35 466.056 2276.43 465.369 2276.24 464.617C2275.38 461.006 2271.01 458.872 2266.48 459.975C2262.05 461.036 2259.06 464.886 2259.93 468.497C2260.15 469.513 2260.74 470.362 2261.39 471.095L2141.75 565.316C2139.91 563.912 2137.2 563.266 2134.43 563.953C2130.92 564.785 2128.5 567.357 2127.95 570.116L1806.34 583.988C1806.31 583.724 1806.37 583.417 1806.34 583.153C1805.48 579.542 1801.12 577.408 1796.59 578.511C1792.15 579.572 1789.17 583.421 1790.07 587.107C1790.32 588.388 1791.23 589.375 1792.28 590.205L1552.67 844.81C1550.93 844.01 1548.8 843.758 1546.53 844.309C1543.25 845.132 1540.85 847.322 1540.08 849.901L1199.13 841.679C1199.11 841.224 1199.23 840.801 1199.2 840.346C1198.3 836.66 1193.98 834.601 1189.45 835.704C1185.01 836.765 1182.03 840.614 1182.93 844.3C1183.31 845.804 1184.3 846.94 1185.62 847.834L1031.72 1036.55C1030.07 1035.9 1028.07 1035.68 1025.99 1036.15C1021.56 1037.21 1018.57 1041.06 1019.48 1044.74C1019.74 1045.83 1020.33 1046.68 1021.12 1047.45L768.555 1272.81C766.691 1271.79 764.299 1271.28 761.847 1271.91C757.41 1272.98 754.426 1276.82 755.33 1280.51C755.823 1282.43 757.251 1283.92 759.218 1284.72L714.319 1366.97L403.249 1507.3C401.496 1505.02 398.177 1503.9 394.707 1504.81C390.27 1505.87 387.286 1509.72 388.19 1513.41C388.452 1514.5 389.047 1515.35 389.829 1516.11L126.75 1755.03C124.886 1754 122.536 1753.57 120.178 1754.16C115.741 1755.22 112.757 1759.07 113.66 1762.76C114.635 1765.95 118.955 1768.01 123.526 1766.98ZM3803.34 326.782L3484.5 526.104C3483.8 525.488 3482.91 524.955 3481.93 524.655L3597.76 247.498C3598.89 247.64 3600.04 247.592 3601.15 247.279C3603.32 246.769 3605.21 245.55 3606.34 244.02L3803.18 321.089C3802.52 322.409 3802.12 323.793 3802.46 325.223C3802.66 325.785 3803.05 326.262 3803.34 326.782ZM1023.7 1048.7C1024.77 1049.15 1026 1049.25 1027.18 1049.28L1039.1 1216.68C1036.65 1218.15 1035.33 1220.6 1035.48 1222.94L838.089 1262.62L1023.7 1048.7ZM1799.93 591.516C1800.85 591.287 1801.56 590.877 1802.31 590.542L2021.01 820.035C2019.05 821.751 2017.98 824.001 2018.45 826.298L1823.85 883.408C1822.7 880.949 1819.99 879.467 1816.75 879.528L1799.65 591.642C1799.74 591.6 1799.83 591.558 1799.93 591.516ZM2137.67 577C2139.11 576.636 2140.33 575.9 2141.38 575.058L2390.22 743.059C2389.19 744.356 2388.75 745.856 2388.8 747.412L2034.42 822.015C2033.74 820.182 2032.17 818.843 2030.15 818.168L2134.01 577.155C2135.28 577.329 2136.43 577.281 2137.67 577ZM3595.96 247.004L3480.13 524.161C3478.99 524.019 3477.85 524.067 3476.7 524.305C3475.77 524.534 3474.93 524.912 3474.13 525.364L3362.95 403.532C3365.14 401.806 3366.41 399.282 3365.86 396.836C3365.71 396.159 3365.24 395.533 3364.91 394.939L3593.48 245.512C3594.22 246.203 3594.97 246.703 3595.96 247.004ZM3293.03 837.76L3037.66 767.985C3038.03 766.982 3038.23 765.871 3037.97 764.781L3230.4 706.509C3231.75 709.53 3235.59 711.153 3239.61 710.186C3239.79 710.102 3239.98 710.018 3240.17 709.934L3296.84 834.559C3295.2 835.388 3293.92 836.43 3293.03 837.76ZM2650.83 1289.75L2580.04 1075.98C2583.67 1074.53 2586.04 1071.24 2585.25 1067.97C2585.21 1067.89 2585.16 1067.82 2585.08 1067.67L2764.97 1003.96C2765.8 1005.45 2767.08 1006.46 2768.82 1007.07L2653.81 1289.43C2652.95 1289.36 2651.85 1289.48 2650.83 1289.75ZM2290.5 1148.91C2290.3 1148.35 2290.11 1147.78 2289.76 1147.38L2398.8 1058.66L2569.16 1070.17C2569.14 1070.55 2569.07 1071.04 2569.14 1071.38L2290.5 1148.91ZM829.67 1612.9C828.286 1612.32 826.653 1612.12 825 1612.3L777.567 1349.56L1000.62 1430.76L829.67 1612.9ZM584.782 1611.04C583.849 1612.3 583.5 1613.75 583.743 1615.23L309.264 1681.21C309.223 1681.14 309.181 1681.07 309.097 1680.92L520.02 1576.88L584.782 1611.04ZM308.304 1679.51C307.615 1678.7 306.689 1678.09 305.617 1677.64L393.544 1517.51C394.896 1517.83 396.394 1518 397.921 1517.59C399.77 1517.13 401.327 1516.16 402.437 1515.01L518.147 1576.05L308.304 1679.51ZM304.264 1677.32C302.912 1677 301.415 1676.83 299.887 1677.24C295.451 1678.3 292.467 1682.15 293.37 1685.84C293.402 1686.1 293.663 1686.36 293.788 1686.58L279.831 1692.56L385.58 1529.36L304.264 1677.32ZM294.196 1687.51C294.279 1687.66 294.311 1687.92 294.488 1688.03L273.141 1702.72L278.701 1694.09L294.196 1687.51ZM628.723 1527.92C629.991 1528.09 631.218 1528.19 632.558 1527.87C633.577 1527.6 634.511 1527.18 635.404 1526.68L600.243 1595.46L628.723 1527.92ZM639.066 1519.46C639.024 1519.39 639.118 1519.35 639.076 1519.27C638.656 1517.69 637.582 1516.41 636.072 1515.6L651.013 1495.97L639.066 1519.46ZM627.776 1527.69L594.15 1607.3C592.881 1607.13 591.654 1607.03 590.314 1607.35C588.464 1607.81 587.001 1608.74 585.798 1609.93L521.567 1576.09L624.101 1525.53C624.956 1526.63 626.247 1527.26 627.776 1527.69ZM208.852 1748.03L268.11 1707.31L250.795 1733.95L209.228 1748.7C209.009 1748.52 208.977 1748.25 208.852 1748.03ZM210.012 1750.3L249.253 1736.41L220.278 1781.02C218.791 1780.66 217.251 1780.43 215.537 1780.92C215.215 1780.97 215.07 1781.13 214.883 1781.21L204.896 1758.26C208.49 1756.74 210.758 1753.49 210.012 1750.3ZM251.953 1735.38L261.623 1731.97L224.957 1777.06L251.953 1735.38ZM253.538 1733L271.804 1704.72L295.186 1688.65C295.447 1688.9 295.843 1689.19 296.197 1689.4L263.675 1729.38L253.538 1733ZM297.123 1690.01C298.82 1690.74 300.952 1690.99 303.03 1690.52C307.238 1689.47 309.921 1686.13 309.507 1682.69L577.471 1618.23L265.577 1728.8L297.123 1690.01ZM638.198 1525.62L645.537 1529.3L601.351 1597.84L638.198 1525.62ZM638.808 1524.41L658.008 1486.98L754.546 1360.45L646.282 1528.12L638.808 1524.41ZM1220.87 1017.78C1222.07 1018.26 1223.48 1018.47 1224.94 1018.37L1238.97 1178.49L1193.73 1188.38L1125.72 1128.06L1220.87 1017.78ZM2018.94 827.379C2019.64 828.832 2020.77 830 2022.33 830.694L1965.33 941.156L1823.73 888.2C1824.25 887.038 1824.59 885.77 1824.34 884.489L2018.94 827.379ZM2389.13 749.032C2389.5 749.89 2389.91 750.632 2390.61 751.249L2200.34 928.581L2033.58 827.598C2034.42 826.384 2034.81 825 2034.75 823.635L2389.13 749.032ZM3229.89 704.782C3229.92 705.047 3229.82 705.279 3229.95 705.502L3037.47 763.7C3036.41 761.389 3033.93 759.898 3030.97 759.833L3031.01 712.489L3229.89 704.782ZM2281.25 1145.16C2280.74 1145.29 2280.32 1145.58 2279.76 1145.83L2220.47 1051.1C2222.26 1050.11 2223.52 1048.62 2224.11 1046.96L2308.57 1052.66L2284 1145.04C2283.13 1144.96 2282.22 1145 2281.25 1145.16ZM1964.62 942.592L1876.55 1113.29L1818.95 892.391C1820.58 891.753 1821.95 890.859 1822.93 889.678L1964.62 942.592ZM2314.18 1002.73L2243.84 1001.94L2263.72 969.031L2315.4 1000.32C2314.76 1001.07 2314.31 1001.93 2314.18 1002.73ZM2314.12 1003.87C2314.14 1004.33 2313.97 1004.87 2314.13 1005.35C2314.17 1005.43 2314.21 1005.5 2314.26 1005.58L2223.52 1041.74C2222.88 1040.82 2222.1 1040.05 2221.12 1039.56L2243.19 1003.07L2314.12 1003.87ZM2219.19 1039.03C2217.83 1038.71 2216.34 1038.55 2214.71 1038.99C2213.88 1039.18 2213.27 1039.55 2212.62 1039.84L2180.43 1002.41L2240.86 1003.09L2219.19 1039.03ZM2130.13 996.438L2153.92 974.233L2177.07 1001.22L2131.82 1000.7C2131.89 1000.2 2131.96 999.704 2131.81 999.217C2131.54 998.126 2130.91 997.203 2130.13 996.438ZM2128.68 995.321C2126.86 994.372 2124.51 993.94 2122.15 994.533C2121.83 994.585 2121.49 994.827 2121.21 994.952L2031.12 831.121L2152.8 972.875L2128.68 995.321ZM2131.86 1001.8L2178.06 1002.36L2211.06 1040.82C2210.68 1041.18 2210.16 1041.5 2209.82 1041.94L2130.78 1004.05C2131.32 1003.34 2131.63 1002.64 2131.86 1001.8ZM2330.23 1001.1L2595.46 895.383C2595.59 895.605 2595.58 895.796 2595.8 895.976L2430.09 1030.86L2330.18 1004.75C2330.51 1003.68 2330.71 1002.57 2330.44 1001.47C2330.36 1001.33 2330.18 1001.22 2330.23 1001.1ZM2320.69 996.833C2319.12 997.165 2317.84 998.017 2316.74 998.975L2264.71 967.469L2394.21 753.073C2394.21 753.073 2394.21 753.073 2394.25 753.147L2323.39 996.643C2322.44 996.607 2321.61 996.604 2320.69 996.833ZM2392.28 752.546L2262.99 966.478L2201.89 929.465L2392.02 752.291C2392.1 752.44 2392.14 752.514 2392.28 752.546ZM2262.03 968.114L2241.51 1001.96L2179.44 1001.27L2155.21 973.001L2200.44 930.856L2262.03 968.114ZM2154.1 971.642L2031.94 829.262C2032.04 829.22 2032.18 829.062 2032.23 828.946L2198.95 929.855L2154.1 971.642ZM2028.2 831.13C2028.52 831.079 2028.85 830.837 2029.13 830.711L2119.77 995.507C2118.69 996.085 2117.69 996.811 2116.92 997.717L1967.21 941.798L2024.27 831.22C2025.53 831.395 2026.86 831.453 2028.2 831.13ZM2116.24 999.228C2115.68 1000.51 2115.34 1001.77 2115.63 1003.13C2115.79 1003.62 2116.13 1004.02 2116.34 1004.39L1881.84 1133.51L1877.27 1116.04L1966.5 943.234L2116.24 999.228ZM1875.03 1116.21L1863.1 1139.32C1862.33 1139.2 1861.42 1139.24 1860.5 1139.28L1821.05 909.02L1875.03 1116.21ZM1868.34 1143.01C1868.3 1142.94 1868.21 1142.79 1868.17 1142.71L1880.25 1136.09L1881.08 1139.43L1868.34 1143.01ZM1867.46 1141.45C1866.82 1140.72 1865.93 1140.19 1865.04 1139.84L1875.79 1119.02L1879.91 1134.66L1867.46 1141.45ZM1835.87 1132.11L1596.21 1007.87L1596.08 998.073L1604.09 994.011L1835.87 1132.11ZM1320.6 1407.77L1187.89 1318.19L1241.32 1241.12C1242.9 1241.63 1244.62 1241.78 1246.38 1241.36C1246.56 1241.28 1246.75 1241.2 1246.94 1241.11L1325.22 1408.29L1320.6 1407.77ZM1059.79 1377.62C1059.87 1376.93 1059.95 1376.25 1059.81 1375.57C1059.53 1374.67 1059.12 1373.93 1058.61 1373.23L1069.1 1365.45L1071.58 1379.02L1059.79 1377.62ZM1048.98 1226.74L1156.42 1299.3L1113.4 1331.11L1070.37 1362.93L1045.7 1228.4C1047 1228.01 1048.08 1227.43 1048.98 1226.74ZM1239.71 1240.54L1186.56 1317.29L1159.19 1298.81L1238.84 1239.82C1239.14 1240.15 1239.4 1240.41 1239.71 1240.54ZM1236.63 1234.86C1236.51 1235.47 1236.52 1236.12 1236.62 1236.72C1236.9 1237.62 1237.32 1238.37 1237.83 1239.07L1158.08 1298.09L1050.46 1225.43C1051 1224.72 1051.46 1223.87 1051.72 1223.1L1236.63 1234.86ZM1068.9 1364.05L1057.6 1372.47C1056.15 1371.35 1054.4 1370.74 1052.34 1370.83L1051.37 1357.88L1044.92 1233.68L1068.9 1364.05ZM1070.7 1364.36L1114.18 1332.2L1157.66 1300.05L1185.57 1318.86L1138.55 1386.72L1073.45 1379.21L1070.7 1364.36ZM1186.76 1319.72L1316.56 1407.25L1140.27 1386.88L1186.76 1319.72ZM1367.2 1152.38L1449.05 1134.52C1449.13 1134.67 1449.17 1134.74 1449.26 1134.89L1253.7 1229.62L1367.2 1152.38ZM1578.99 1008.06L1503.71 1083.96L1571.37 1013.25L1578.99 1008.06ZM1591.98 1005.77C1592.92 1004.32 1593.42 1002.71 1592.96 1001.05C1592.84 1000.64 1592.54 1000.31 1592.33 999.941L1594.25 998.986L1594.33 1007.04L1591.98 1005.77ZM1594.24 997.505L1591.75 998.711C1591.07 997.904 1590.27 997.33 1589.3 996.839L1591.27 993.906C1592.17 994.248 1593.17 994.358 1594.26 994.426L1594.24 997.505ZM1590.24 993.532C1590.38 993.564 1590.46 993.712 1590.6 993.745L1588.62 996.678C1588.31 996.539 1587.9 996.442 1587.5 996.345L1590.24 993.532ZM1577.69 1006.79L1577.36 1007.03L1577.65 1006.72C1577.65 1006.72 1577.65 1006.72 1577.69 1006.79ZM1566.45 1016.57L1461.68 1125.97C1461.19 1125.73 1460.51 1125.57 1459.93 1125.36L1475.04 1078.79L1566.45 1016.57ZM1458.16 1125.13C1457.21 1125.1 1456.29 1125.14 1455.33 1125.29C1453.48 1125.75 1452.01 1126.68 1450.81 1127.87L1423.7 1113.82L1472.62 1080.52L1458.16 1125.13ZM1449.78 1129.17C1449.04 1130.34 1448.7 1131.61 1448.72 1132.9L1371.03 1149.82L1422.32 1114.9L1449.78 1129.17ZM1464.96 1131.38C1464.94 1130.93 1465.05 1130.5 1464.99 1129.97C1464.69 1128.62 1463.78 1127.63 1462.73 1126.8L1579.92 1008.67C1581.16 1009.42 1582.7 1009.66 1584.34 1009.66L1590.78 1135.72L1464.96 1131.38ZM1596.06 996.592L1596.05 994.275C1596.28 994.265 1596.5 994.256 1596.73 994.246C1598.4 993.872 1599.67 993.02 1600.86 992.02L1602.95 993.224L1596.06 996.592ZM1589.23 992.776L1586 996.18C1585.27 996.135 1584.63 996.238 1583.98 996.342L1582.25 989.31L1586.97 988.959C1586.96 989.149 1586.95 989.339 1586.98 989.604C1587.23 990.885 1588.18 991.947 1589.23 992.776ZM1577.07 1005.49L1572.53 1010.31L1476 1076.13L1498.83 1005.82L1576.79 1003.94C1576.86 1004.28 1576.66 1004.55 1576.74 1004.89C1576.77 1005.16 1576.99 1005.34 1577.07 1005.49ZM1362.5 1153.37L1250.64 1229.6C1249.15 1228.41 1247.17 1227.81 1245.02 1227.93L1240.81 1179.9L1362.5 1153.37ZM1243.28 1228.16C1243.18 1228.2 1243.14 1228.13 1243.05 1228.17C1241.9 1228.41 1240.87 1228.87 1239.92 1229.48L1195.25 1189.84L1239.06 1180.31L1243.28 1228.16ZM1238.72 1230.67C1237.81 1231.54 1237.11 1232.6 1236.69 1233.72L1051.69 1221.99C1051.75 1221.69 1051.72 1221.42 1051.69 1221.16L1193.17 1190.3L1238.72 1230.67ZM1059.34 1379.31L1059.97 1379.4L1071.98 1380.98L1085.56 1455.03L1085.47 1455.07L1054.83 1383.57C1056.98 1382.6 1058.56 1381.05 1059.34 1379.31ZM1596.26 1248.83C1595.01 1249.11 1593.93 1249.69 1592.99 1250.3L1462.65 1136.23C1463.66 1135.31 1464.39 1134.33 1464.78 1133.14L1590.97 1137.5L1596.72 1248.81C1596.49 1248.82 1596.35 1248.79 1596.26 1248.83ZM1868.87 1145.19C1868.83 1144.93 1868.84 1144.74 1868.85 1144.55L1881.5 1141.01L1882.59 1145.45L1868.87 1145.19ZM2224.47 1045.31C2224.5 1044.74 2224.67 1044.2 2224.47 1043.64C2224.43 1043.56 2224.34 1043.41 2224.3 1043.34L2315.04 1007.18C2316.01 1008.69 2317.78 1009.76 2319.86 1010.13L2309.06 1051.05L2224.47 1045.31ZM2432.26 1031.37L2597.24 897.093C2598.31 897.732 2599.46 898.329 2600.92 898.42L2577.51 1063.16C2576.92 1063.15 2576.33 1063.14 2575.68 1063.24C2573.09 1063.84 2571.19 1065.45 2570.09 1067.24L2432.26 1031.37ZM2578.84 1063.03L2602.25 898.288C2602.84 898.301 2603.43 898.314 2604.08 898.211C2605.74 897.837 2607.02 896.985 2608.12 896.027L2697.63 953.573L2581.98 1064.04C2581.1 1063.51 2579.97 1063.17 2578.84 1063.03ZM2770.82 994.179C2769.16 994.553 2767.88 995.405 2766.78 996.363L2700.19 953.541L2823.19 835.964L2773.61 993.947C2772.79 993.944 2771.88 993.983 2770.82 994.179ZM2825.96 833.415L2844.31 815.885C2844.66 816.098 2845.07 816.195 2845.48 816.292C2845.61 816.324 2845.75 816.356 2845.83 816.505L2779.47 981.466L2825.96 833.415ZM2849.53 803.317C2848.84 803.346 2848.25 803.333 2847.61 803.436C2847.19 803.529 2846.76 803.813 2846.39 803.981L2838.8 792.789L2859.66 726.254L2849.53 803.317ZM2844.33 804.904C2841.78 806.607 2840.41 809.363 2841 812.074C2841 812.074 2841 812.074 2841.04 812.148L2831.66 815.241L2837.84 795.451L2844.33 804.904ZM2841.62 813.187C2841.96 813.781 2842.29 814.375 2842.77 814.81L2827.02 829.875L2831.13 816.593L2841.62 813.187ZM3022.16 764.991C3021.79 765.995 3021.65 766.989 3021.74 767.973L2869.96 804.468C2868.81 801.173 2864.8 799.253 2860.5 800.346C2857.91 800.949 2856 802.55 2854.91 804.344C2854.59 804.205 2854.23 804.182 2853.92 804.043C2852.94 803.553 2851.82 803.22 2850.63 803.194L2860.91 724.947C2861.6 724.919 2862.19 724.931 2862.83 724.828C2865.42 724.225 2867.28 722.741 2868.43 720.831L3022.16 764.991ZM2829.13 817.4L2824.41 832.53L2698.73 952.615L2609.22 895.068C2610.53 893.455 2611.09 891.532 2610.73 889.647C2610.73 889.647 2610.73 889.647 2610.69 889.573L2829.13 817.4ZM1816.46 892.952L1858.8 1139.58C1857.41 1140.01 1856.18 1140.75 1855.13 1141.59L1606.01 993.056L1809.42 890.437C1810.83 892.316 1813.57 893.226 1816.46 892.952ZM1473.5 1077.71L1421.79 1112.91L1232.13 1014.49C1232.57 1013.83 1232.93 1013.01 1233.11 1012.28L1496.77 1005.91L1473.5 1077.71ZM1226.77 1018.29C1228.62 1017.83 1230.08 1016.9 1231.29 1015.71L1420.46 1113.88L1366.28 1150.74L1240.54 1178.16L1226.54 1018.3C1226.64 1018.26 1226.68 1018.33 1226.77 1018.29ZM1043.31 1228.73L1046.56 1290.68L1042.16 1228.78C1042.57 1228.88 1042.99 1228.78 1043.31 1228.73ZM1043.6 1377.35C1043.52 1378.04 1043.39 1378.85 1043.54 1379.52C1043.79 1380.8 1044.7 1381.79 1045.75 1382.62L1012.6 1417.95L914.226 1362.33L1043.6 1377.35ZM1087.27 1454.73L1073.75 1381.21L1136.53 1389.58L1091.08 1455.06C1089.92 1454.66 1088.6 1454.6 1087.27 1454.73ZM1319.6 1409.33L1322.2 1411.04C1321.81 1411.59 1321.55 1412.17 1321.29 1412.75L1139.55 1388.5L1319.6 1409.33ZM1335.88 1409.55L1334.75 1409.41C1334.13 1408.94 1333.43 1408.52 1332.71 1408.28L1358.08 1352.27L1385.42 1380.26L1335.88 1409.55ZM1331 1407.74C1329.87 1407.6 1328.59 1407.62 1327.34 1407.9C1327.16 1407.98 1326.97 1408.07 1326.78 1408.15L1248.25 1240.53C1248.43 1240.44 1248.71 1240.32 1248.9 1240.23L1356.78 1350.8L1331 1407.74ZM1250.23 1239.26C1251.33 1238.31 1252.16 1237.28 1252.54 1236.09L1404.69 1244.98L1357.46 1349.29L1250.23 1239.26ZM1252.81 1234.48C1252.84 1233.91 1252.91 1233.41 1252.84 1232.89C1252.73 1232.47 1252.47 1232.22 1252.26 1231.85L1449.83 1136.12C1450.65 1137.15 1451.75 1137.87 1453.05 1138.3L1405.46 1243.43L1252.81 1234.48ZM1454.81 1138.72C1454.94 1138.76 1455.08 1138.79 1455.21 1138.82L1443.91 1245.61L1407.37 1243.5L1454.81 1138.72ZM1457.1 1138.63C1457.55 1138.61 1458.05 1138.66 1458.43 1138.5C1459.67 1138.22 1460.75 1137.64 1461.7 1137.03L1592.04 1251.1C1591.12 1251.97 1590.39 1252.95 1590.06 1254.03L1445.78 1245.6L1457.1 1138.63ZM1592.65 1137.58L1595.75 1137.68L1596.51 1212.46L1592.65 1137.58ZM1592.56 1135.76L1586.03 1009.55C1586.13 1009.51 1586.26 1009.54 1586.35 1009.5C1587.7 1009.18 1588.96 1008.52 1589.92 1007.72L1594.32 1010.76L1595.62 1135.79L1592.56 1135.76ZM1596.26 1012.12L1783.12 1142.39L1597.57 1135.93L1596.26 1012.12ZM1597.09 1010.26L1853.59 1143.21C1853.29 1143.72 1852.99 1144.23 1852.82 1144.77L1786.81 1142.5L1597.09 1010.26ZM1868.72 1147.02L1883.09 1147.17L1902.03 1219.93C1902.03 1219.93 1902.03 1219.93 1901.94 1219.98L1864.33 1151.69C1866.62 1150.57 1868.17 1148.94 1868.72 1147.02ZM1884.92 1145.43L1883.58 1140.35L2026.43 1100.06L1980.96 1146.77L1884.92 1145.43ZM1883.16 1138.78L1882.18 1134.94L2117.05 1005.65C2117.27 1005.83 2117.49 1006.01 2117.71 1006.19L2028.55 1097.8L1883.16 1138.78ZM2119.07 1007.16C2120.85 1008.04 2123.12 1008.32 2125.38 1007.77C2126.5 1007.46 2127.47 1007.11 2128.32 1006.54L2179.65 1055.1L2031.66 1096.87L2119.07 1007.16ZM2129.38 1005.51C2129.71 1005.27 2129.95 1005.07 2130.15 1004.8L2209.18 1042.69C2208.29 1044.02 2207.94 1045.47 2208.13 1047.06L2181.18 1054.7L2129.38 1005.51ZM2208.74 1048.56C2208.82 1048.7 2208.87 1048.78 2208.95 1048.93L2188.01 1061.02L2182.57 1055.93L2208.74 1048.56ZM2209.93 1050.25C2211.8 1052.11 2214.81 1052.9 2217.95 1052.23C2218.46 1052.1 2218.89 1051.81 2219.35 1051.6L2278.63 1146.33C2278.45 1146.41 2278.35 1146.46 2278.26 1146.5L2189.27 1062.22L2209.93 1050.25ZM2310.25 1051.07L2321.09 1010.23C2321.95 1010.31 2322.87 1010.27 2323.79 1010.04C2326.38 1009.44 2328.29 1007.83 2329.38 1006.04L2428.58 1031.91L2397.74 1056.99L2310.25 1051.07ZM2430.88 1032.46L2569.16 1068.49L2400.52 1057.14L2430.88 1032.46ZM2583.52 1065.11L2699.22 954.532L2765.82 997.354C2764.5 998.967 2763.94 1000.89 2764.3 1002.78C2764.34 1002.85 2764.38 1002.92 2764.47 1003.07L2584.67 1066.74C2584.3 1066.07 2584 1065.55 2583.52 1065.11ZM2775.74 994.39L2847.09 816.87C2848.48 817.267 2850.07 817.39 2851.69 816.941C2852.11 816.848 2852.44 816.606 2852.82 816.438L2897.3 885.915L2777.44 994.926C2777 994.755 2776.41 994.551 2775.74 994.39ZM2854.77 815.748C2855.9 815.054 2856.73 814.031 2857.42 812.976C2859.2 813.851 2861.43 814.061 2863.74 813.584C2867.99 812.607 2870.77 809.032 2870.22 805.559L3022 769.064C3022.27 769.964 3022.78 770.665 3023.48 771.281L2898.92 884.631L2854.77 815.748ZM3028.82 759.961C3028.59 759.971 3028.45 759.939 3028.26 760.023C3025.77 760.584 3023.82 762.11 3022.67 764.02L2868.88 719.976C2869.04 719.627 2869.19 719.279 2869.31 718.856L3028.9 712.692L3028.82 759.961ZM2858.23 724.757L2837.49 790.868L2811.46 752.528L2855.16 723.252C2856.03 723.975 2857.01 724.466 2858.23 724.757ZM2836.62 793.489L2829.62 815.783L2610.02 888.385C2609.89 888.163 2609.86 887.898 2609.64 887.717L2809.67 753.706L2836.62 793.489ZM2594.42 893.527C2594.46 893.601 2594.54 893.75 2594.59 893.824L2329.36 999.545C2328.38 998.218 2326.92 997.292 2325.03 996.84L2395.89 753.344C2396.71 753.347 2397.66 753.383 2398.59 753.154C2400.02 752.789 2401.25 752.054 2402.34 751.286L2596.08 887.948C2594.63 889.529 2593.92 891.61 2594.42 893.527ZM1604.55 992.32L1601.93 990.797C1603.06 989.267 1603.57 987.46 1603.16 985.692C1603.08 985.353 1602.82 985.098 1602.66 984.801L1785.41 901.025L1604.55 992.32ZM1587.01 987.361L1581.92 987.69L1552.21 864.169L1592.38 981.511C1589.35 982.589 1587.32 984.802 1587.01 987.361ZM1549.18 857.343L1580.55 987.748L1502.98 992.806L1546.94 857.514C1547.63 857.485 1548.4 857.414 1549.18 857.343ZM1580.88 989.368L1582.64 996.664C1579.54 997.593 1577.27 999.816 1576.73 1002.38L1499.23 1004.25L1502.39 994.465L1580.88 989.368ZM1497.4 1004.33L1264.49 1010.01L1500.51 994.658L1497.4 1004.33ZM1191.65 1188.85L1051.51 1219.38C1051.11 1218.26 1050.38 1217.38 1049.28 1216.66L1124.6 1129.4L1191.65 1188.85ZM1047.99 1215.84C1046.75 1215.29 1045.29 1215.2 1043.78 1215.22L1030.23 1061.76L1029.29 1049.08C1029.29 1049.08 1029.29 1049.08 1029.39 1049.03C1030.54 1048.8 1031.57 1048.33 1032.51 1047.72L1123.56 1128.38L1047.99 1215.84ZM1042.36 1215.4C1042.27 1215.44 1042.13 1215.41 1042.04 1215.45C1041.71 1215.5 1041.48 1215.7 1041.2 1215.83L1036.19 1146.2L1042.36 1215.4ZM1040.04 1228.34L1050.19 1370.96C1050.19 1370.96 1050.19 1370.96 1050.1 1371C1047.83 1371.55 1045.98 1372.85 1044.76 1374.42L851.127 1307.62L1036.47 1225.94C1037.33 1227.05 1038.56 1227.79 1040.04 1228.34ZM1044.1 1375.74C1044.01 1375.78 1044.05 1375.85 1043.95 1375.9L910.947 1360.46L832.123 1315.87L848.936 1308.51L1044.1 1375.74ZM769.37 1282.58L802.176 1301.14L774.644 1332.93L765.934 1284.58C767.232 1284.19 768.457 1283.45 769.37 1282.58ZM803.862 1302.06L828.464 1316.03L775.731 1339.23L775.025 1335.27L803.862 1302.06ZM773.769 1340.11L773.021 1340.44C772.635 1339.96 772.156 1339.53 771.718 1339.17L773.273 1337.35L773.769 1340.11ZM768.244 1350.67C770.103 1350.03 771.66 1349.05 772.686 1347.75L775.329 1348.7L813.62 1560.88L768.244 1350.67ZM773.452 1346.2C773.503 1346.08 773.596 1346.04 773.555 1345.97L774.782 1346.07L774.887 1346.67L773.452 1346.2ZM774.04 1344.54C774.121 1343.85 774.254 1343.05 774.107 1342.37C774.075 1342.11 773.856 1341.93 773.731 1341.7L774.012 1341.58L774.581 1344.67L774.04 1344.54ZM775.974 1340.7L830.015 1316.91L906.09 1359.94L776.713 1344.92L775.974 1340.7ZM830.707 1315.02L805.127 1300.56L809.937 1294.96L847.104 1307.76L830.707 1315.02ZM803.44 1299.64L772.362 1282.07L807.959 1294.36L803.44 1299.64ZM772.758 1334.98L769.99 1338.18C768.783 1337.69 767.514 1337.52 766.142 1337.58L764.479 1288.86L772.758 1334.98ZM1014.15 1418.83L1047.16 1383.66C1048.89 1384.46 1051.03 1384.72 1053.29 1384.16C1053.48 1384.08 1053.66 1384 1053.85 1383.91L1084.49 1455.42C1083.47 1455.88 1082.67 1456.33 1081.9 1457.05L1014.15 1418.83ZM1386.5 1381.35L1420.73 1416.38C1419.78 1417.18 1419.14 1418.12 1418.67 1419.17L1338.42 1409.9L1386.5 1381.35ZM1904.16 1219.35L1885.33 1147.19L1979.14 1148.52L1909.47 1220.04C1908 1219.3 1906.14 1219.11 1904.16 1219.35ZM2285.22 1145.14L2309.75 1052.69L2396.02 1058.51L2288.22 1146.31C2287.29 1145.7 2286.4 1145.36 2285.22 1145.14ZM3031.85 434.219C3032.45 434.042 3032.88 433.758 3033.44 433.506L3233 698.648C3231.43 699.816 3230.21 701.388 3229.89 703.111L3030.91 710.86L3031.3 434.28C3031.39 434.238 3031.62 434.229 3031.85 434.219ZM762.807 1350.79C763.931 1351.12 765.116 1351.15 766.447 1351.01L822.881 1612.7C821.302 1613.22 820.025 1614.07 818.967 1615.1L647.792 1528.94L762.807 1350.79ZM777.26 1347.56L777.049 1346.35L909.422 1361.7L1011.39 1419.33L1002.02 1429.3L777.26 1347.56ZM1012.85 1420.26L1077.75 1456.96L1003.67 1429.95L1012.85 1420.26ZM1095.66 1459.24C1095.24 1457.66 1094.07 1456.42 1092.6 1455.68L1138.2 1389.85L1320.81 1414.18C1320.7 1414.6 1320.81 1415.01 1320.83 1415.47L1095.66 1459.24ZM1336.39 1411.28L1401.12 1418.77L1337.08 1414.59C1337.16 1413.91 1337.24 1413.22 1337.1 1412.54C1336.94 1412.05 1336.64 1411.72 1336.39 1411.28ZM1424.68 1414.24C1423.75 1414.47 1422.82 1414.89 1422.02 1415.34L1387.97 1380.42L1432.32 1354.19L1426.01 1414.11C1425.59 1414.2 1425.09 1414.15 1424.68 1414.24ZM1386.88 1379.32L1358.85 1350.53L1406.65 1244.94L1443.69 1247.1L1432.51 1352.25L1386.88 1379.32ZM1445.55 1247.29L1589.7 1255.68C1589.67 1256.25 1589.6 1256.75 1589.66 1257.28C1589.76 1257.88 1590.11 1258.28 1590.4 1258.8L1434.44 1351.1L1445.55 1247.29ZM1598.6 1248.62L1597.39 1137.69L1785.54 1144.19L1814.47 1164.39L1604.88 1251.66C1603.7 1249.77 1601.43 1248.65 1598.6 1248.62ZM1789.4 1144.4L1852.59 1146.64C1852.61 1147.09 1852.5 1147.52 1852.56 1148.05C1852.59 1148.31 1852.77 1148.42 1852.89 1148.64L1816.84 1163.61L1789.4 1144.4ZM1853.48 1149.68C1855.13 1152.19 1858.62 1153.41 1862.23 1152.54C1862.65 1152.45 1862.98 1152.2 1863.35 1152.04L1900.96 1220.32C1900.4 1220.57 1899.98 1220.86 1899.55 1221.14L1818.08 1164.36L1853.48 1149.68ZM1910.74 1221.05L1981.37 1148.54L2035.64 1149.29L1911.17 1221.41C1911.09 1221.26 1910.91 1221.15 1910.74 1221.05ZM1983.06 1146.76L2029.44 1099.17L2180.95 1056.38L2186.69 1061.8L2038.65 1147.56L1983.06 1146.76ZM2187.95 1063L2277.16 1147.46C2276.06 1148.41 2275.18 1149.55 2274.84 1150.82L2041.84 1147.62L2187.95 1063ZM2778.93 996.117L2898.32 887.506L3027.04 1088.77C3026.18 1089.33 3025.42 1090.05 3024.78 1090.8L2780.09 1002.75C2780.66 1001.48 2781 1000.21 2780.71 998.853C2780.31 997.73 2779.71 996.882 2778.93 996.117ZM3029.93 1087.47C3029.52 1087.56 3029.19 1087.8 3028.81 1087.97L2899.76 886.116L3024.79 772.365C3025.99 773.037 3027.34 773.36 3028.89 773.408L3030.48 1087.41C3030.39 1087.45 3030.12 1087.38 3029.93 1087.47ZM3241.51 697.339L3356.09 405.683C3357.09 405.793 3358.23 405.745 3359.34 405.432C3360.27 405.203 3361.11 404.826 3361.91 404.374L3473.08 526.206C3470.89 527.932 3469.62 530.455 3470.18 532.901C3470.41 533.727 3470.78 534.395 3471.3 535.096L3243.82 698.534C3243.16 697.991 3242.45 697.565 3241.51 697.339ZM3354.29 405.189L3239.67 696.771C3238.67 696.661 3237.52 696.71 3236.41 697.022C3235.81 697.2 3235.38 697.484 3234.82 697.735L3035.27 432.593C3037.02 431.341 3038.12 429.547 3038.35 427.676L3349.66 400.293C3349.65 400.484 3349.6 400.6 3349.68 400.748C3350.21 402.93 3352 404.45 3354.29 405.189ZM3029.15 434.409L3028.86 710.947L2869.3 717.185C2869.27 716.92 2869.37 716.688 2869.3 716.349C2868.85 714.506 2867.55 713.041 2865.82 712.24L3027.51 434.212C3028.01 434.267 3028.56 434.396 3029.15 434.409ZM2853.08 720.186C2853.27 720.938 2853.7 721.49 2854.03 722.084L2810.52 751.276L2654.2 520.936L2855.41 713.933C2853.59 715.682 2852.51 717.931 2853.08 720.186ZM2649.75 520.516C2650.17 520.423 2650.59 520.139 2650.97 519.971L2808.73 752.453L2608.52 886.549C2606.68 884.954 2603.8 884.202 2600.89 884.857C2599.46 885.221 2598.23 885.957 2597.19 886.799L2403.45 750.137C2404.86 748.482 2405.51 746.517 2405.11 744.558C2404.84 743.467 2404.21 742.544 2403.29 741.747L2643.18 519.654C2645.04 520.677 2647.39 521.11 2649.75 520.516ZM1808.54 889.069L1602.16 983.72C1600.5 981.396 1597.05 980.25 1593.5 981.008L1550.99 856.811C1553.32 855.953 1555.09 854.321 1555.88 852.388L1808.11 885.82C1807.98 886.623 1807.94 887.385 1808.13 888.136C1808.11 888.517 1808.37 888.772 1808.54 889.069ZM1545.18 857.094L1501.05 992.925L1233.21 1010.38C1233.22 1010.19 1233.23 1010 1233.2 1009.74C1233.12 1009.4 1232.86 1009.14 1232.65 1008.77L1541.18 854.983C1542.27 856.077 1543.69 856.739 1545.18 857.094ZM1219.59 1016.96L1124.59 1127.09L1033.76 1046.61C1035.1 1045.26 1035.92 1043.59 1035.93 1041.73L1217.03 1013.46C1217.03 1013.46 1217.07 1013.53 1216.98 1013.57C1217.36 1015.08 1218.35 1016.21 1219.59 1016.96ZM1035.78 1224.3C1035.86 1224.45 1035.9 1224.52 1035.99 1224.67L849.295 1306.87L811.232 1293.73L836.774 1264.23L1035.78 1224.3ZM809.12 1293.1L771.235 1280.07C771.648 1279.14 771.739 1278.26 771.695 1277.35L833.542 1264.94L809.12 1293.1ZM763.45 1284.95L765.269 1337.69C764.947 1337.74 764.676 1337.68 764.354 1337.73C759.918 1338.79 756.933 1342.64 757.795 1346.25C757.827 1346.52 758.046 1346.7 758.129 1346.84L721.068 1363.57L761.308 1284.89C761.984 1285.05 762.67 1285.03 763.45 1284.95ZM758.913 1348.45C759.383 1349.07 759.997 1349.54 760.747 1350.04L661.37 1480.26L719.796 1366.09L758.913 1348.45ZM623.307 1524.12L519.694 1575.26L403.359 1513.94C403.805 1513.28 404.157 1512.66 404.331 1511.93L622.76 1521.48C622.73 1522.05 622.565 1522.59 622.764 1523.15C622.973 1523.52 623.233 1523.78 623.307 1524.12ZM276.849 1693.71L236.058 1711.09L386.71 1524.3L276.849 1693.71ZM275.804 1695.39L269.353 1705.35L208.06 1747.45C207.8 1747.2 207.581 1747.02 207.268 1746.88L234.545 1712.98L275.804 1695.39ZM205.853 1746.03C204.198 1745.37 202.337 1745.19 200.259 1745.66C196.425 1746.54 193.896 1749.53 193.779 1752.65L130.004 1759.14C129.972 1758.88 130.076 1758.65 130.044 1758.38C130.012 1758.12 129.793 1757.94 129.626 1757.64L231.419 1714.29L205.853 1746.03ZM654.562 1489.17L636.388 1513.04L715.59 1367.98L716.898 1367.39L654.562 1489.17ZM129.965 1759.91L193.739 1753.42C193.771 1753.68 193.667 1753.91 193.699 1754.18C194.561 1757.79 198.923 1759.92 203.453 1758.82C203.775 1758.77 203.919 1758.61 204.2 1758.48L214.187 1781.43C212.276 1782.19 210.844 1783.39 210.037 1784.87L129.627 1762.01C129.843 1761.35 130.018 1760.62 129.965 1759.91ZM222.38 1781.84L263.483 1731.32L574.495 1621.05L224.089 1783.21C223.661 1782.66 223.088 1782.27 222.38 1781.84ZM596.709 1608.11L647.046 1530.11L818.045 1616.17C817.599 1616.83 817.248 1617.46 817.073 1618.19L599.988 1613.51C600.059 1613.02 600.13 1612.52 599.973 1612.03C599.563 1610.26 598.354 1608.95 596.709 1608.11ZM831.076 1613.95L1002.36 1431.37L1079.98 1459.67C1079.37 1460.88 1079.17 1462.18 1079.42 1463.46C1079.53 1464.06 1079.91 1464.54 1080.2 1465.06L831.462 1614.42C831.43 1614.16 831.253 1614.05 831.076 1613.95ZM1320.95 1416.72C1321.96 1420.17 1326.14 1422.2 1330.58 1421.14C1333.86 1420.31 1336.35 1418.08 1336.99 1415.47L1417.77 1420.69L1418.18 1420.78C1418.12 1420.9 1418.17 1420.97 1418.21 1421.05L1106.43 1458.41L1320.95 1416.72ZM1427.84 1414.03L1434.35 1353L1591.38 1260.13C1591.47 1260.28 1591.6 1260.31 1591.74 1260.34L1431.25 1415.1C1430.23 1414.54 1429.16 1414.09 1427.84 1414.03ZM1605.68 1252.88L1815.93 1165.32L1898.02 1222.57C1897.19 1223.6 1896.71 1224.83 1896.6 1226.09L1605.9 1253.89C1605.91 1253.7 1605.96 1253.59 1605.88 1253.44C1605.89 1253.25 1605.71 1253.14 1605.68 1252.88ZM1912.16 1222.74L2038.83 1149.34L2274.66 1152.58L1912.7 1223.7C1912.58 1223.29 1912.32 1223.03 1912.16 1222.74ZM2290.93 1150.3L2569.48 1072.81C2570.79 1075.76 2574.53 1077.42 2578.41 1076.61L2649.2 1290.39C2647.76 1290.94 2646.48 1291.79 2645.56 1292.86L2290.34 1153.82C2290.95 1152.61 2291.14 1151.5 2290.93 1150.3ZM2655.66 1290L2770.67 1007.64C2771.76 1007.7 2772.9 1007.66 2774.05 1007.42C2776.32 1006.87 2778.21 1005.65 2779.34 1004.12L3024.03 1092.16C3023.46 1093.44 3023.12 1094.71 3023.42 1096.06C3023.53 1096.48 3023.79 1096.73 3024 1097.1L2658.76 1291.77C2657.94 1290.93 2656.92 1290.37 2655.66 1290ZM3032.5 1087.24L3030.91 773.247C3031.14 773.238 3031.27 773.27 3031.46 773.186C3033.95 772.625 3035.9 771.099 3037 769.305L3292.36 839.08C3291.94 840.199 3291.75 841.309 3292.01 842.4C3292.27 843.491 3292.91 844.414 3293.82 845.211L3036.42 1088.18C3035.27 1087.58 3034.05 1087.29 3032.5 1087.24ZM3298.57 833.878C3298.38 833.962 3298.19 834.046 3298.01 834.13L3241.42 709.463C3244.79 707.953 3246.96 704.746 3246.17 701.664C3245.93 700.838 3245.52 700.096 3245.05 699.47L3472.53 536.032C3472.96 536.393 3473.26 536.722 3473.75 536.968L3302.9 833.886C3301.59 833.637 3300.14 833.546 3298.57 833.878ZM3592.44 244.493L3363.86 393.919C3361.99 392.25 3359.11 391.498 3356.1 392.194C3355.92 392.278 3355.82 392.32 3355.64 392.404L3274.5 214.327C3276.51 213.33 3278 211.823 3278.74 210.007L3591.45 240.659C3591.37 241.346 3591.25 241.959 3591.39 242.637C3591.68 243.347 3592.1 243.899 3592.44 244.493ZM3272.63 215.166C3272.82 215.082 3272.91 215.04 3273.1 214.956L3354.33 392.991C3351.75 394.24 3350.04 396.402 3349.74 398.77L3038.39 426.078C3038.4 425.888 3038.45 425.772 3038.37 425.623C3038.1 424.532 3037.47 423.609 3036.69 422.845L3265.92 214.271C3267.83 215.368 3270.18 215.801 3272.63 215.166ZM3025.58 433.686L2863.88 711.714C2862.53 711.391 2861.07 711.3 2859.5 711.633C2858.49 711.904 2857.55 712.323 2856.75 712.775L2653.93 518.174C2655.56 516.7 2656.39 514.841 2656.26 512.947L3022.34 430.213C3022.94 431.707 3024.11 432.95 3025.58 433.686ZM2641.81 518.686L2401.93 740.779C2400.06 739.756 2397.75 739.397 2395.35 739.916C2395.26 739.958 2395.17 740 2395.07 740.042L2271.79 472.1C2273.61 471.187 2274.96 469.838 2275.69 468.212L2640.06 513.706C2639.98 514.393 2639.9 515.081 2640.05 515.758C2640.39 516.998 2641.03 517.921 2641.81 518.686ZM2269.73 473.023C2269.82 472.981 2269.92 472.939 2270.01 472.897L2393.3 740.839C2392.64 741.132 2392.12 741.458 2391.65 741.858L2142.81 573.858C2144.13 572.245 2144.68 570.321 2144.23 568.479C2144.01 567.462 2143.42 566.613 2142.77 565.881L2262.41 471.66C2264.25 473.064 2266.96 473.71 2269.73 473.023ZM2132.48 576.725L2028.62 817.738C2027.48 817.596 2026.3 817.57 2025.05 817.851C2024.13 818.08 2023.42 818.489 2022.67 818.825L1803.97 589.332C1805.3 588.174 1806.19 586.844 1806.5 585.312L2128.1 571.439C2128.14 571.704 2128.07 572.01 2128.11 572.275C2128.54 574.498 2130.29 575.944 2132.48 576.725ZM1793.79 591.015C1794.91 591.538 1796.31 591.745 1797.68 591.687L1814.78 879.573C1814.69 879.615 1814.65 879.541 1814.55 879.583C1811.55 880.279 1809.49 882.228 1808.5 884.435L1556.27 851.003C1556.4 850.2 1556.44 849.438 1556.25 848.686C1556 847.405 1555.09 846.418 1554.04 845.588L1793.79 591.015ZM1540.62 853.563L1232.09 1007.35C1230.45 1005.48 1227.62 1004.61 1224.59 1005.05L1193.16 848.542C1196.18 847.655 1198.39 845.547 1199.11 843.085L1540.05 851.308C1540.07 851.763 1539.96 852.185 1539.98 852.64C1540.19 853.012 1540.45 853.266 1540.62 853.563ZM1187.06 848.305C1188.45 848.893 1190.04 849.015 1191.78 848.79L1223.2 1005.29C1219.5 1006.4 1217.06 1009.35 1217.13 1012.39L1036.03 1040.66C1035.99 1040.59 1035.99 1040.59 1036.08 1040.55C1035.7 1039.04 1034.71 1037.91 1033.39 1037.01L1187.06 848.305ZM835.045 1263.24L771.63 1275.99C771.357 1275.08 770.804 1274.31 770.158 1273.58L1017.79 1052.56L835.045 1263.24ZM718.119 1364.98L716.904 1365.53L731.836 1338.19L718.119 1364.98ZM633.658 1514.64C632.306 1514.31 630.892 1514.3 629.416 1514.59C626.133 1515.41 623.737 1517.6 623.006 1520.25L404.578 1510.7C404.608 1510.13 404.772 1509.59 404.574 1509.03C404.542 1508.76 404.365 1508.66 404.239 1508.44L713.202 1369.14L633.658 1514.64ZM232.838 1712.44L129.083 1756.67C128.874 1756.3 128.572 1755.97 128.311 1755.72L388.859 1518.96L232.838 1712.44Z" fill="#777FAD"/>
</g>
<path d="M1649.97 988.026L1705.22 978.42L1680.82 919.823L1649.97 988.026Z" fill="#9BC6DB"/>
<path d="M1765.67 764.411L1818 728.827L1835.66 786.226L1765.67 764.411Z" fill="#45A041"/>
</g>
<defs>
<filter id="filter0_f_37_1253" x="-223.422" y="942.77" width="2679.83" height="283.263" filterUnits="userSpaceOnUse" color-interpolation-filters="sRGB">
<feFlood flood-opacity="0" result="BackgroundImageFix"/>
<feBlend mode="normal" in="SourceGraphic" in2="BackgroundImageFix" result="shape"/>
<feGaussianBlur stdDeviation="54.6341" result="effect1_foregroundBlur_37_1253"/>
</filter>
<clipPath id="clip0_37_1253">
<rect width="1920" height="1080" fill="white" transform="matrix(-1 0 0 1 1920 0)"/>
</clipPath>
</defs>
</svg>
